<?xml version="1.0" encoding="UTF-8" standalone="no"?>
<!-- Generator: Adobe Illustrator 26.0.1, SVG Export Plug-In . SVG Version: 6.00 Build 0)  -->

<svg
   version="1.1"
   id="Layer_1"
   x="0px"
   y="0px"
   viewBox="0 0 1003.4501 447.04997"
   xml:space="preserve"
   sodipodi:docname="merit-rankin-logo (2).svg"
   width="1003.45"
   height="447.04999"
   inkscape:export-filename="merit-rankin-logo (2).svg"
   inkscape:export-xdpi="96"
   inkscape:export-ydpi="96"
   inkscape:version="1.2.2 (732a01da63, 2022-12-09)"
   xmlns:inkscape="http://www.inkscape.org/namespaces/inkscape"
   xmlns:sodipodi="http://sodipodi.sourceforge.net/DTD/sodipodi-0.dtd"
   xmlns="http://www.w3.org/2000/svg"
   xmlns:svg="http://www.w3.org/2000/svg"><defs
   id="defs383" /><sodipodi:namedview
   id="namedview381"
   pagecolor="#ffffff"
   bordercolor="#000000"
   borderopacity="0.25"
   inkscape:showpageshadow="2"
   inkscape:pageopacity="0.0"
   inkscape:pagecheckerboard="0"
   inkscape:deskcolor="#d1d1d1"
   showgrid="false"
   inkscape:zoom="1.2394299"
   inkscape:cx="440.52511"
   inkscape:cy="227.52396"
   inkscape:window-width="1920"
   inkscape:window-height="1009"
   inkscape:window-x="1912"
   inkscape:window-y="-8"
   inkscape:window-maximized="1"
   inkscape:current-layer="Layer_1" />
<style
   type="text/css"
   id="style304">
	.st0{fill:#65656A;}
	.st1{fill:#818185;}
	.st2{fill:#7CC24D;}
	.st3{fill:#98CC71;}
</style>
<g
   id="g378"
   transform="matrix(5,0,0,5,5.0000061,4.9999939)">
	<g
   id="g328">
		<path
   class="st0"
   d="m 108.09,18.82 c -0.14,-3.66 -0.27,-8.08 -0.27,-12.5 h -0.14 c -0.95,3.88 -2.21,8.22 -3.39,11.78 l -3.7,11.87 H 95.22 L 91.97,18.19 C 90.98,14.62 89.94,10.29 89.22,6.32 h -0.09 c -0.18,4.11 -0.32,8.8 -0.54,12.59 L 88.05,30.47 H 81.69 L 83.63,0.04 h 9.16 l 2.98,10.16 c 0.95,3.52 1.9,7.31 2.57,10.88 h 0.14 c 0.86,-3.52 1.9,-7.54 2.89,-10.92 l 3.25,-10.11 h 8.98 l 1.67,30.43 h -6.73 z"
   id="path306"
   style="fill:#c5c5c5;fill-opacity:1" />
		<path
   class="st0"
   d="m 123.03,21.61 c 0.23,2.84 3.02,4.2 6.23,4.2 2.35,0 4.24,-0.32 6.09,-0.9 l 0.9,4.65 c -2.26,0.9 -5.01,1.35 -7.99,1.35 -7.49,0 -11.78,-4.33 -11.78,-11.24 0,-5.6 3.48,-11.78 11.15,-11.78 7.13,0 9.84,5.55 9.84,11.01 0,1.17 -0.14,2.21 -0.23,2.71 z m 8.08,-4.69 c 0,-1.67 -0.72,-4.47 -3.88,-4.47 -2.89,0 -4.06,2.62 -4.24,4.47 z"
   id="path308"
   style="fill:#c5c5c5;fill-opacity:1" />
		<path
   class="st0"
   d="m 139.73,15.66 c 0,-3.25 -0.09,-5.37 -0.18,-7.27 h 5.91 l 0.22,4.06 h 0.18 c 1.13,-3.21 3.84,-4.56 5.96,-4.56 0.63,0 0.95,0 1.44,0.09 v 6.46 c -0.5,-0.09 -1.08,-0.18 -1.85,-0.18 -2.53,0 -4.24,1.35 -4.69,3.48 -0.09,0.45 -0.14,0.99 -0.14,1.53 v 11.2 h -6.86 V 15.66 Z"
   id="path310"
   style="fill:#c5c5c5;fill-opacity:1" />
		<path
   class="st0"
   d="m 162.66,3.52 c 0,1.9 -1.44,3.43 -3.7,3.43 -2.17,0 -3.61,-1.53 -3.57,-3.43 -0.05,-1.99 1.4,-3.48 3.61,-3.48 2.22,0.01 3.62,1.49 3.66,3.48 z m -7.08,26.94 V 8.39 h 6.86 v 22.07 z"
   id="path312"
   style="fill:#c5c5c5;fill-opacity:1" />
		<path
   class="st0"
   d="m 173.86,2.07 v 6.32 h 4.92 v 5.06 h -4.92 v 7.99 c 0,2.66 0.63,3.88 2.71,3.88 0.86,0 1.53,-0.09 2.03,-0.18 l 0.04,5.19 c -0.9,0.36 -2.53,0.59 -4.47,0.59 -2.21,0 -4.06,-0.77 -5.15,-1.9 -1.26,-1.31 -1.9,-3.43 -1.9,-6.55 v -9.03 h -2.93 V 8.39 h 2.93 V 3.6 Z"
   id="path314"
   style="fill:#c5c5c5;fill-opacity:1" />
		<path
   class="st0"
   d="M 88.59,33.52 V 45.21 H 99.92 V 33.52 h 6.86 V 63.95 H 99.92 V 51.22 H 88.59 V 63.95 H 81.68 V 33.52 Z"
   id="path316"
   style="fill:#c5c5c5;fill-opacity:1" />
		<path
   class="st0"
   d="m 114.99,55.1 c 0.23,2.84 3.02,4.2 6.23,4.2 2.35,0 4.24,-0.32 6.09,-0.9 l 0.9,4.65 c -2.26,0.9 -5.01,1.35 -7.99,1.35 -7.49,0 -11.78,-4.33 -11.78,-11.24 0,-5.6 3.48,-11.78 11.15,-11.78 7.13,0 9.84,5.55 9.84,11.01 0,1.17 -0.14,2.21 -0.23,2.71 z m 8.09,-4.7 c 0,-1.67 -0.72,-4.47 -3.88,-4.47 -2.89,0 -4.06,2.62 -4.24,4.47 z"
   id="path318"
   style="fill:#c5c5c5;fill-opacity:1" />
		<path
   class="st0"
   d="m 144.29,63.95 -0.41,-2.21 h -0.14 c -1.44,1.76 -3.7,2.71 -6.32,2.71 -4.47,0 -7.13,-3.25 -7.13,-6.77 0,-5.73 5.15,-8.49 12.96,-8.44 v -0.32 c 0,-1.17 -0.63,-2.84 -4.02,-2.84 -2.26,0 -4.65,0.77 -6.09,1.67 l -1.26,-4.42 c 1.53,-0.86 4.56,-1.94 8.58,-1.94 7.36,0 9.71,4.33 9.71,9.53 v 7.67 c 0,2.12 0.09,4.15 0.32,5.37 h -6.2 z m -0.81,-10.43 c -3.61,-0.05 -6.41,0.81 -6.41,3.48 0,1.76 1.17,2.62 2.71,2.62 1.72,0 3.12,-1.13 3.57,-2.53 0.09,-0.36 0.14,-0.77 0.14,-1.17 v -2.4 z"
   id="path320"
   style="fill:#c5c5c5;fill-opacity:1" />
		<path
   class="st0"
   d="m 152.33,31.9 h 6.86 v 32.05 h -6.86 z"
   id="path322"
   style="fill:#c5c5c5;fill-opacity:1" />
		<path
   class="st0"
   d="m 170.65,35.55 v 6.32 h 4.92 v 5.06 h -4.92 v 7.99 c 0,2.66 0.63,3.88 2.71,3.88 0.86,0 1.53,-0.09 2.03,-0.18 l 0.04,5.19 c -0.9,0.36 -2.53,0.59 -4.47,0.59 -2.21,0 -4.06,-0.77 -5.15,-1.9 -1.26,-1.31 -1.9,-3.43 -1.9,-6.55 v -9.03 h -2.93 v -5.06 h 2.93 v -4.78 z"
   id="path324"
   style="fill:#c5c5c5;fill-opacity:1" />
		<path
   class="st0"
   d="m 177.74,31.9 h 6.86 v 12.59 h 0.09 c 0.72,-0.95 1.62,-1.67 2.71,-2.26 0.99,-0.54 2.3,-0.86 3.57,-0.86 4.38,0 7.72,3.02 7.72,9.66 v 12.91 h -6.86 V 51.8 c 0,-2.89 -0.99,-4.88 -3.57,-4.88 -1.81,0 -2.93,1.17 -3.43,2.39 -0.18,0.45 -0.23,1.04 -0.23,1.53 v 13.09 h -6.86 z"
   id="path326"
   style="fill:#c5c5c5;fill-opacity:1" />
	</g>
	<g
   id="g362">
		<g
   id="g346">
			<g
   id="g336">
				<g
   id="g332">
					<path
   class="st0"
   d="m 73.06,0 c -6.28,4.53 -14.29,7.71 -23.22,8.93 -1.21,2.91 -1.92,6.35 -1.92,10.04 h 12.78 0.53 c 6.98,0 12.63,-8.49 12.63,-18.96 h -0.8 z"
   id="path330"
   style="fill:#959595;fill-opacity:1" />
				</g>
				<path
   class="st1"
   d="M 73.06,0 H 60.7 60.56 v 0 c -0.19,0 -0.39,0.01 -0.58,0.02 -0.05,0 -0.09,0.01 -0.14,0.01 -0.19,0.02 -0.38,0.04 -0.56,0.06 -0.02,0 -0.04,0.01 -0.06,0.01 -0.17,0.03 -0.34,0.06 -0.5,0.1 C 58.67,0.21 58.63,0.22 58.58,0.23 58.4,0.27 58.22,0.32 58.05,0.37 58,0.39 57.96,0.4 57.93,0.41 57.78,0.46 57.63,0.51 57.49,0.56 57.44,0.58 57.4,0.59 57.35,0.61 57.18,0.68 57.02,0.75 56.85,0.82 56.8,0.84 56.75,0.87 56.7,0.89 56.57,0.95 56.44,1.02 56.31,1.09 56.26,1.12 56.21,1.14 56.16,1.17 56.01,1.26 55.85,1.35 55.7,1.44 55.64,1.48 55.58,1.51 55.53,1.55 55.42,1.62 55.3,1.7 55.19,1.78 55.14,1.82 55.09,1.85 55.03,1.89 54.9,2 54.76,2.11 54.62,2.22 54.55,2.27 54.49,2.33 54.42,2.38 54.32,2.46 54.23,2.54 54.13,2.63 54.04,2.71 53.95,2.8 53.86,2.88 53.77,2.96 53.68,3.05 53.6,3.13 53.53,3.2 53.46,3.27 53.39,3.35 53.31,3.43 53.24,3.51 53.16,3.59 53.05,3.71 52.94,3.83 52.83,3.96 52.77,4.03 52.71,4.1 52.65,4.18 52.57,4.27 52.5,4.36 52.43,4.46 52.38,4.53 52.33,4.6 52.27,4.66 52.14,4.83 52.02,4.99 51.9,5.17 51.86,5.23 51.81,5.29 51.77,5.35 51.52,5.71 51.28,6.09 51.06,6.48 51.03,6.53 51,6.58 50.97,6.64 50.74,7.05 50.52,7.47 50.31,7.9 50.29,7.94 50.27,7.98 50.25,8.03 50.11,8.33 49.98,8.63 49.85,8.94 58.76,7.71 66.77,4.53 73.06,0 Z"
   id="path334"
   style="fill:#c5c5c5;fill-opacity:1" />
			</g>
			<g
   id="g344">
				<g
   id="g340">
					<path
   class="st2"
   d="m 44.57,9.42 c -0.87,0.04 -1.75,0.06 -2.63,0.06 -0.06,0 -0.12,0 -0.18,0 -0.04,0 -0.09,0 -0.13,0 C 29.44,9.48 18.38,5.87 10.23,0 H 0 c 0,10.47 5.66,18.96 12.63,18.96 h 33.66 v 0 c 0,-3.48 -0.63,-6.74 -1.72,-9.54 z"
   id="path338" />
				</g>
				<path
   class="st3"
   d="M 44.57,9.41 C 44.16,8.36 43.69,7.38 43.16,6.47 43.15,6.46 43.15,6.45 43.14,6.44 43.05,6.29 42.97,6.15 42.88,6 42.88,5.99 42.87,5.98 42.87,5.98 42.7,5.71 42.53,5.45 42.35,5.19 42.33,5.16 42.31,5.14 42.3,5.11 42.2,5 42.11,4.87 42.02,4.75 42,4.72 41.98,4.7 41.95,4.67 41.79,4.46 41.63,4.26 41.46,4.06 41.42,4.02 41.39,3.97 41.35,3.93 41.26,3.83 41.18,3.73 41.09,3.64 41.04,3.59 40.99,3.54 40.94,3.48 40.8,3.33 40.66,3.19 40.52,3.05 40.46,2.99 40.4,2.93 40.33,2.87 40.25,2.79 40.17,2.72 40.09,2.65 40.01,2.58 39.93,2.51 39.86,2.45 39.75,2.36 39.64,2.26 39.52,2.17 39.43,2.1 39.34,2.03 39.25,1.96 39.18,1.9 39.1,1.85 39.03,1.8 38.92,1.72 38.81,1.65 38.7,1.57 38.62,1.52 38.54,1.47 38.46,1.42 38.34,1.35 38.22,1.27 38.1,1.21 38.04,1.17 37.97,1.14 37.91,1.1 37.77,1.03 37.63,0.95 37.49,0.89 37.44,0.87 37.4,0.85 37.35,0.82 37.2,0.75 37.06,0.69 36.91,0.63 36.85,0.61 36.8,0.59 36.74,0.56 36.58,0.5 36.41,0.44 36.24,0.39 36.22,0.38 36.19,0.38 36.17,0.37 36,0.32 35.83,0.27 35.66,0.23 35.61,0.22 35.56,0.21 35.51,0.19 35.33,0.15 35.15,0.11 34.96,0.09 c -0.01,0 -0.01,0 -0.02,0 C 34.76,0.06 34.57,0.04 34.38,0.03 34.33,0.03 34.28,0.02 34.23,0.02 34.05,0.01 33.85,0 33.66,0 H 10.23 c 8.15,5.87 19.21,9.48 31.4,9.48 0.99,0 1.97,-0.02 2.94,-0.07 z"
   id="path342" />
			</g>
		</g>
		<g
   id="g360">
			<g
   id="g352">
				<path
   class="st2"
   d="m 29.64,21.22 h -1.17 -3.83 c -5.14,0 -9.56,4.61 -11.53,11.23 h 25.49 2.36 2.88 c 1.54,-3.14 2.45,-7.02 2.45,-11.23 z"
   id="path348" />
				<path
   class="st3"
   d="M 38.6,32.44 H 13.11 c -0.7,2.36 -1.1,4.98 -1.1,7.74 h 16.46 1.17 4.02 v 0 c 4.18,0 7.88,-3.05 10.18,-7.74 h -2.88 z"
   id="path350" />
			</g>
			<g
   id="g358">
				<path
   class="st2"
   d="m 48.01,21.11 v 11.33 h 1.05 v 0 c 12.11,0 22.23,12.7 24.81,29.71 v -20.9 -1.6 -1.31 c 0,-9.52 -11.58,-17.23 -25.86,-17.23 z"
   id="path354" />
				<path
   class="st3"
   d="m 49.06,32.44 v 0 h -1.05 v 7.21 1.6 5.48 0 c 0,9.51 11.58,17.23 25.86,17.23 V 62.15 C 71.29,45.14 61.17,32.44 49.06,32.44 Z"
   id="path356" />
			</g>
		</g>
	</g>
	<g
   id="g376">
		<path
   class="st2"
   d="m 82.33,72.17 c 1.1,-0.18 2.75,-0.32 4.57,-0.32 2.25,0 3.83,0.34 4.91,1.19 0.9,0.72 1.4,1.78 1.4,3.18 0,1.94 -1.37,3.27 -2.68,3.74 v 0.07 c 1.06,0.43 1.65,1.44 2.03,2.84 0.47,1.71 0.95,3.7 1.24,4.28 H 90.28 C 90.03,86.72 89.67,85.48 89.22,83.61 88.81,81.72 88.16,81.2 86.76,81.18 h -1.04 v 5.97 h -3.4 V 72.17 Z m 3.41,6.54 h 1.35 c 1.71,0 2.73,-0.86 2.73,-2.19 0,-1.4 -0.95,-2.1 -2.52,-2.12 -0.83,0 -1.31,0.07 -1.56,0.11 z"
   id="path364" />
		<path
   class="st2"
   d="m 100.7,87.16 -0.2,-1.1 h -0.07 c -0.72,0.88 -1.85,1.35 -3.16,1.35 -2.23,0 -3.56,-1.62 -3.56,-3.38 0,-2.86 2.57,-4.24 6.47,-4.21 v -0.16 c 0,-0.59 -0.32,-1.42 -2.01,-1.42 -1.13,0 -2.32,0.38 -3.04,0.83 L 94.5,76.86 c 0.77,-0.43 2.28,-0.97 4.28,-0.97 3.67,0 4.85,2.16 4.85,4.76 v 3.83 c 0,1.06 0.05,2.07 0.16,2.68 z m -0.41,-5.21 c -1.8,-0.02 -3.2,0.41 -3.2,1.74 0,0.88 0.59,1.31 1.35,1.31 0.86,0 1.56,-0.56 1.78,-1.26 0.05,-0.18 0.07,-0.38 0.07,-0.59 z"
   id="path366" />
		<path
   class="st2"
   d="m 104.98,79.65 c 0,-1.37 -0.05,-2.55 -0.09,-3.52 h 2.97 l 0.16,1.51 h 0.07 c 0.45,-0.7 1.58,-1.76 3.4,-1.76 2.25,0 3.94,1.49 3.94,4.73 v 6.54 H 112 v -6.11 c 0,-1.42 -0.5,-2.39 -1.74,-2.39 -0.95,0 -1.51,0.65 -1.74,1.28 -0.09,0.2 -0.14,0.54 -0.14,0.86 v 6.36 h -3.43 v -7.5 z"
   id="path368" />
		<path
   class="st2"
   d="m 120.26,80.78 h 0.04 c 0.25,-0.45 0.52,-0.9 0.79,-1.33 l 2.23,-3.31 h 4.12 l -3.94,4.46 4.51,6.56 h -4.22 l -2.66,-4.53 -0.88,1.08 v 3.45 h -3.43 v -16 h 3.43 v 9.62 z"
   id="path370" />
		<path
   class="st2"
   d="m 132.36,73.07 c 0,0.95 -0.72,1.71 -1.85,1.71 -1.08,0 -1.8,-0.77 -1.78,-1.71 -0.02,-0.99 0.7,-1.73 1.8,-1.73 1.11,0 1.8,0.74 1.83,1.73 z m -3.54,14.09 V 76.14 h 3.43 v 11.02 z"
   id="path372" />
		<path
   class="st2"
   d="m 134.09,79.65 c 0,-1.37 -0.04,-2.55 -0.09,-3.52 h 2.97 l 0.16,1.51 h 0.07 c 0.45,-0.7 1.58,-1.76 3.4,-1.76 2.25,0 3.94,1.49 3.94,4.73 v 6.54 h -3.43 v -6.11 c 0,-1.42 -0.5,-2.39 -1.74,-2.39 -0.95,0 -1.51,0.65 -1.73,1.28 -0.09,0.2 -0.14,0.54 -0.14,0.86 v 6.36 h -3.43 v -7.5 z"
   id="path374" />
	</g>
</g>
</svg>
